<svg width="41" height="41" viewBox="0 0 41 41" fill="none" xmlns="http://www.w3.org/2000/svg">
<rect x="40.9524" y="40.9524" width="40.9524" height="40.9524" rx="20.4762" transform="rotate(-180 40.9524 40.9524)" fill="white"/>
<path d="M27.5054 21.2404C27.9273 21.2404 28.2694 20.8983 28.2694 20.4763C28.2694 20.0544 27.9273 19.7123 27.5054 19.7123L27.5054 21.2404ZM12.9068 19.9361C12.6085 20.2344 12.6085 20.7182 12.9068 21.0166L17.7691 25.8789C18.0675 26.1773 18.5513 26.1773 18.8496 25.8789C19.148 25.5805 19.148 25.0967 18.8496 24.7984L14.5276 20.4763L18.8496 16.1543C19.148 15.8559 19.148 15.3721 18.8496 15.0738C18.5513 14.7754 18.0675 14.7754 17.7691 15.0738L12.9068 19.9361ZM27.5054 19.7123L13.4471 19.7123L13.4471 21.2404L27.5054 21.2404L27.5054 19.7123Z" fill="black"/>
</svg>
