<svg width="41" height="41" viewBox="0 0 41 41" fill="none" xmlns="http://www.w3.org/2000/svg">
<rect x="0.0476074" width="40.9524" height="40.9524" rx="20.4762" fill="white"/>
<path d="M13.4946 19.7123C13.0727 19.7123 12.7306 20.0544 12.7306 20.4763C12.7306 20.8983 13.0727 21.2404 13.4946 21.2404L13.4946 19.7123ZM28.0932 21.0166C28.3915 20.7182 28.3915 20.2344 28.0932 19.9361L23.2309 15.0738C22.9325 14.7754 22.4487 14.7754 22.1504 15.0738C21.852 15.3721 21.852 15.8559 22.1504 16.1543L26.4724 20.4763L22.1504 24.7984C21.852 25.0967 21.852 25.5805 22.1504 25.8789C22.4487 26.1772 22.9325 26.1772 23.2309 25.8789L28.0932 21.0166ZM13.4946 21.2404L27.5529 21.2404L27.5529 19.7123L13.4946 19.7123L13.4946 21.2404Z" fill="black"/>
</svg>
