<svg width="15" height="14" viewBox="0 0 15 14" fill="none" xmlns="http://www.w3.org/2000/svg">
    <path d="M13.7833 5.02081L9.60839 0.845882C9.48537 0.722853 9.3185 0.653736 9.14451 0.653736C8.97052 0.653736 8.80366 0.722853 8.68063 0.845882C8.5576 0.968911 8.48849 1.13577 8.48849 1.30976C8.48849 1.48375 8.5576 1.65062 8.68063 1.77364L12.8556 5.94858C12.9366 6.02975 13.0068 6.12113 13.0643 6.22041L1.30031 6.22041C1.21321 6.2189 1.12669 6.23475 1.04578 6.26703C0.964874 6.29931 0.891207 6.34739 0.829078 6.40844C0.766949 6.4695 0.717603 6.54232 0.683918 6.62266C0.650232 6.70299 0.632884 6.78923 0.632884 6.87634C0.632884 6.96345 0.650232 7.04969 0.683917 7.13002C0.717602 7.21036 0.766949 7.28318 0.829078 7.34423C0.891207 7.40529 0.964874 7.45337 1.04578 7.48565C1.12669 7.51793 1.21321 7.53378 1.30031 7.53227L13.0643 7.53227C13.0069 7.63157 12.9367 7.72296 12.8556 7.8041L8.68063 11.979C8.5576 12.1021 8.48849 12.2689 8.48849 12.4429C8.48849 12.6169 8.5576 12.7838 8.68063 12.9068C8.80366 13.0298 8.97052 13.0989 9.14451 13.0989C9.3185 13.0989 9.48537 13.0298 9.6084 12.9068L13.7833 8.73186C14.2754 8.23975 14.5519 7.5723 14.5519 6.87634C14.5519 6.18038 14.2754 5.51293 13.7833 5.02081Z" fill="#242424"/>
</svg>