<svg width="23" height="22" viewBox="0 0 23 22" fill="none" xmlns="http://www.w3.org/2000/svg">
<path d="M17.3026 3.30005H18.6348C18.7555 3.30005 18.8542 3.39905 18.8542 3.52005V4.85544L15.2682 8.45023L13.7166 6.89484L17.3026 3.30005Z" fill="black"/>
<path d="M15.5621 2.19999V0H19.9514C21.1639 0 22.146 0.985597 22.146 2.19999V6.59998H19.9514V2.74999C19.9514 2.44639 19.7056 2.19999 19.4027 2.19999H15.5621Z" fill="black"/>
<path d="M5.04327 3.30005H3.71113C3.59042 3.30005 3.49166 3.39905 3.49166 3.52005V4.85544L7.10513 8.47773L8.65674 6.92234L5.04327 3.30005Z" fill="black"/>
<path d="M2.3942 3.7556V2.7502C2.3942 2.4466 2.64 2.2002 2.94286 2.2002H3.9458L2.07269 0.32251L0.521078 1.87791L2.3942 3.7556Z" fill="black"/>
<path d="M0.199788 2.19999V6.59998H2.39442V2.74999C2.39442 2.44639 2.64022 2.19999 2.94308 2.19999H6.78369V0H2.39442C1.18298 0 0.199788 0.985597 0.199788 2.19999Z" fill="black"/>
<path d="M3.71097 18.7H5.04311L8.62915 15.1052L7.07754 13.5498L3.49151 17.1446V18.48C3.49151 18.601 3.59027 18.7 3.71097 18.7Z" fill="black"/>
<path d="M0.521078 20.1223L2.07269 21.6777L3.9458 19.8H2.94286C2.64 19.8 2.3942 19.5547 2.3942 19.25V18.2446L0.521078 20.1223Z" fill="black"/>
<path d="M0.199788 15.4001V19.8001C0.199788 21.0156 1.18298 22.0001 2.39442 22.0001H6.78369V19.8001H2.94308C2.64022 19.8001 2.39442 19.5548 2.39442 19.2501V15.4001H0.199788Z" fill="black"/>
<path d="M19.4027 19.8H18.3997L20.2729 21.6777L21.8245 20.1223L19.9513 18.2446V19.25C19.9513 19.5547 19.7055 19.8 19.4027 19.8Z" fill="black"/>
<path d="M13.6892 15.0776L17.3026 18.6999H18.6348C18.7555 18.6999 18.8542 18.6009 18.8542 18.4799V17.1445L15.2408 13.5222L13.6892 15.0776Z" fill="black"/>
<path d="M15.5621 19.8001V22.0001H19.9514C21.1639 22.0001 22.146 21.0156 22.146 19.8001V15.4001H19.9514V19.2501C19.9514 19.5548 19.7056 19.8001 19.4027 19.8001H15.5621Z" fill="black"/>
</svg>
